<mxfile host="65bd71144e">
    <diagram id="UYwrgc9gLGXBYKpEdFcd" name="Page-1">
        <mxGraphModel dx="2365" dy="1877" grid="1" gridSize="10" guides="1" tooltips="1" connect="1" arrows="1" fold="1" page="1" pageScale="1" pageWidth="827" pageHeight="1169" math="0" shadow="0">
            <root>
                <mxCell id="0"/>
                <mxCell id="1" parent="0"/>
                <mxCell id="2" value="Butik" style="rounded=0;whiteSpace=wrap;html=1;" parent="1" vertex="1">
                    <mxGeometry x="-78.5" y="32.5" width="100" height="40" as="geometry"/>
                </mxCell>
                <mxCell id="3" value="Medlemmar" style="rounded=0;whiteSpace=wrap;html=1;" parent="1" vertex="1">
                    <mxGeometry x="-30" y="217.62" width="100" height="40" as="geometry"/>
                </mxCell>
                <mxCell id="4" value="Anställd" style="rounded=0;whiteSpace=wrap;html=1;" parent="1" vertex="1">
                    <mxGeometry x="-230" y="277.62" width="100" height="40" as="geometry"/>
                </mxCell>
                <mxCell id="5" value="Filmer" style="rounded=0;whiteSpace=wrap;html=1;" parent="1" vertex="1">
                    <mxGeometry x="500.5" y="80" width="90" height="30" as="geometry"/>
                </mxCell>
                <mxCell id="6" value="Tel" style="ellipse;whiteSpace=wrap;html=1;" parent="1" vertex="1">
                    <mxGeometry x="-168.5" y="-2.5" width="80" height="40" as="geometry"/>
                </mxCell>
                <mxCell id="7" value="Adress" style="ellipse;whiteSpace=wrap;html=1;" parent="1" vertex="1">
                    <mxGeometry x="-78.5" y="-42.5" width="90" height="50" as="geometry"/>
                </mxCell>
                <mxCell id="8" value="PostNr" style="ellipse;whiteSpace=wrap;html=1;" parent="1" vertex="1">
                    <mxGeometry x="81.5" y="-42.5" width="80" height="40" as="geometry"/>
                </mxCell>
                <mxCell id="9" value="Gata" style="ellipse;whiteSpace=wrap;html=1;" parent="1" vertex="1">
                    <mxGeometry x="-117.5" y="-102.5" width="79" height="40" as="geometry"/>
                </mxCell>
                <mxCell id="10" value="Hus.nr" style="ellipse;whiteSpace=wrap;html=1;" parent="1" vertex="1">
                    <mxGeometry x="71.5" y="-92.5" width="80" height="40" as="geometry"/>
                </mxCell>
                <mxCell id="11" value="&lt;u&gt;Butik.nr&lt;/u&gt;" style="ellipse;whiteSpace=wrap;html=1;" parent="1" vertex="1">
                    <mxGeometry x="-178.5" y="57.5" width="90" height="40" as="geometry"/>
                </mxCell>
                <mxCell id="12" value="HyllNr" style="ellipse;whiteSpace=wrap;html=1;" parent="1" vertex="1">
                    <mxGeometry x="190" y="-22.5" width="80" height="30" as="geometry"/>
                </mxCell>
                <mxCell id="13" value="Hyrpris" style="ellipse;whiteSpace=wrap;html=1;" parent="1" vertex="1">
                    <mxGeometry x="280" y="-20" width="90" height="40" as="geometry"/>
                </mxCell>
                <mxCell id="14" value="Namn" style="ellipse;whiteSpace=wrap;html=1;" parent="1" vertex="1">
                    <mxGeometry x="65" y="15" width="80" height="40" as="geometry"/>
                </mxCell>
                <mxCell id="15" value="Stad" style="ellipse;whiteSpace=wrap;html=1;" parent="1" vertex="1">
                    <mxGeometry x="-18.5" y="-112.5" width="83.5" height="40" as="geometry"/>
                </mxCell>
                <mxCell id="19" value="" style="endArrow=none;html=1;rounded=0;entryX=0;entryY=0.5;entryDx=0;entryDy=0;exitX=1;exitY=0.5;exitDx=0;exitDy=0;" parent="1" source="11" target="2" edge="1">
                    <mxGeometry relative="1" as="geometry">
                        <mxPoint x="-118.5" y="97.5" as="sourcePoint"/>
                        <mxPoint x="41.5" y="97.5" as="targetPoint"/>
                    </mxGeometry>
                </mxCell>
                <mxCell id="21" value="" style="endArrow=none;html=1;rounded=0;entryX=0;entryY=0.5;entryDx=0;entryDy=0;exitX=1;exitY=0.5;exitDx=0;exitDy=0;" parent="1" source="6" target="2" edge="1">
                    <mxGeometry relative="1" as="geometry">
                        <mxPoint x="-88.5" y="17.5" as="sourcePoint"/>
                        <mxPoint x="71.5" y="17.5" as="targetPoint"/>
                    </mxGeometry>
                </mxCell>
                <mxCell id="22" value="" style="endArrow=none;html=1;rounded=0;entryX=0.5;entryY=0;entryDx=0;entryDy=0;" parent="1" target="2" edge="1">
                    <mxGeometry relative="1" as="geometry">
                        <mxPoint x="-28.5" y="7.5" as="sourcePoint"/>
                        <mxPoint x="131.5" y="7.5" as="targetPoint"/>
                    </mxGeometry>
                </mxCell>
                <mxCell id="23" value="" style="endArrow=none;html=1;rounded=0;entryX=0.5;entryY=1;entryDx=0;entryDy=0;exitX=0.5;exitY=0;exitDx=0;exitDy=0;" parent="1" source="7" target="9" edge="1">
                    <mxGeometry relative="1" as="geometry">
                        <mxPoint x="-38.5" y="-42.5" as="sourcePoint"/>
                        <mxPoint x="121.5" y="-42.5" as="targetPoint"/>
                    </mxGeometry>
                </mxCell>
                <mxCell id="24" value="" style="endArrow=none;html=1;rounded=0;exitX=0.5;exitY=0;exitDx=0;exitDy=0;entryX=0.5;entryY=1;entryDx=0;entryDy=0;" parent="1" source="7" target="15" edge="1">
                    <mxGeometry relative="1" as="geometry">
                        <mxPoint x="-18.5" y="-42.5" as="sourcePoint"/>
                        <mxPoint x="141.5" y="-42.5" as="targetPoint"/>
                    </mxGeometry>
                </mxCell>
                <mxCell id="25" value="" style="endArrow=none;html=1;rounded=0;exitX=1;exitY=0;exitDx=0;exitDy=0;entryX=0;entryY=1;entryDx=0;entryDy=0;" parent="1" source="7" target="10" edge="1">
                    <mxGeometry relative="1" as="geometry">
                        <mxPoint x="1.5" y="-32.5" as="sourcePoint"/>
                        <mxPoint x="161.5" y="-32.5" as="targetPoint"/>
                    </mxGeometry>
                </mxCell>
                <mxCell id="26" value="" style="endArrow=none;html=1;rounded=0;exitX=1;exitY=0.5;exitDx=0;exitDy=0;entryX=0;entryY=0.5;entryDx=0;entryDy=0;" parent="1" source="7" target="8" edge="1">
                    <mxGeometry relative="1" as="geometry">
                        <mxPoint x="11.5" y="-13.5" as="sourcePoint"/>
                        <mxPoint x="81.5" y="-13.5" as="targetPoint"/>
                    </mxGeometry>
                </mxCell>
                <mxCell id="27" value="" style="endArrow=none;html=1;rounded=0;exitX=0.75;exitY=0;exitDx=0;exitDy=0;entryX=0;entryY=0.5;entryDx=0;entryDy=0;" parent="1" source="2" target="14" edge="1">
                    <mxGeometry relative="1" as="geometry">
                        <mxPoint x="56.5" y="77.5" as="sourcePoint"/>
                        <mxPoint x="216.5" y="77.5" as="targetPoint"/>
                    </mxGeometry>
                </mxCell>
                <mxCell id="28" value="" style="endArrow=none;html=1;rounded=0;exitX=0;exitY=0;exitDx=0;exitDy=0;entryX=0.5;entryY=1;entryDx=0;entryDy=0;" parent="1" source="152" target="12" edge="1">
                    <mxGeometry relative="1" as="geometry">
                        <mxPoint x="261.25" y="50" as="sourcePoint"/>
                        <mxPoint x="250" y="230" as="targetPoint"/>
                    </mxGeometry>
                </mxCell>
                <mxCell id="31" value="" style="endArrow=none;html=1;rounded=0;entryX=1;entryY=0;entryDx=0;entryDy=0;exitX=0.5;exitY=1;exitDx=0;exitDy=0;" parent="1" source="13" target="152" edge="1">
                    <mxGeometry relative="1" as="geometry">
                        <mxPoint x="120" y="260" as="sourcePoint"/>
                        <mxPoint x="313.75" y="50" as="targetPoint"/>
                    </mxGeometry>
                </mxCell>
                <mxCell id="32" value="" style="endArrow=none;html=1;rounded=0;entryX=0;entryY=1;entryDx=0;entryDy=0;exitX=0.5;exitY=1;exitDx=0;exitDy=0;" parent="1" source="60" target="152" edge="1">
                    <mxGeometry relative="1" as="geometry">
                        <mxPoint x="216.5" y="240" as="sourcePoint"/>
                        <mxPoint x="376.5" y="240" as="targetPoint"/>
                    </mxGeometry>
                </mxCell>
                <mxCell id="33" value="" style="endArrow=none;html=1;rounded=0;entryX=0.5;entryY=0;entryDx=0;entryDy=0;exitX=0.5;exitY=1;exitDx=0;exitDy=0;" parent="1" source="59" target="5" edge="1">
                    <mxGeometry relative="1" as="geometry">
                        <mxPoint x="226.5" y="250" as="sourcePoint"/>
                        <mxPoint x="386.5" y="250" as="targetPoint"/>
                    </mxGeometry>
                </mxCell>
                <mxCell id="49" value="Namn" style="ellipse;whiteSpace=wrap;html=1;align=center;" parent="1" vertex="1">
                    <mxGeometry x="-400" y="242.62" width="100" height="40" as="geometry"/>
                </mxCell>
                <mxCell id="50" value="Lön" style="ellipse;whiteSpace=wrap;html=1;align=center;" parent="1" vertex="1">
                    <mxGeometry x="-350" y="317.62" width="100" height="40" as="geometry"/>
                </mxCell>
                <mxCell id="51" value="&lt;u&gt;Anställning_nr&lt;/u&gt;" style="ellipse;whiteSpace=wrap;html=1;align=center;" parent="1" vertex="1">
                    <mxGeometry x="-259" y="367.62" width="100" height="40" as="geometry"/>
                </mxCell>
                <mxCell id="52" value="Roll" style="ellipse;whiteSpace=wrap;html=1;align=center;" parent="1" vertex="1">
                    <mxGeometry x="536.5" y="230" width="80" height="30" as="geometry"/>
                </mxCell>
                <mxCell id="54" value="Namn&amp;nbsp;" style="ellipse;whiteSpace=wrap;html=1;align=center;" parent="1" vertex="1">
                    <mxGeometry x="776.5" y="410" width="95" height="30" as="geometry"/>
                </mxCell>
                <mxCell id="56" value="Kategori" style="ellipse;whiteSpace=wrap;html=1;align=center;" parent="1" vertex="1">
                    <mxGeometry x="656.5" y="140" width="90" height="30" as="geometry"/>
                </mxCell>
                <mxCell id="57" value="&lt;u&gt;FilmNr&lt;/u&gt;" style="ellipse;whiteSpace=wrap;html=1;align=center;" parent="1" vertex="1">
                    <mxGeometry x="626.5" y="80" width="90" height="40" as="geometry"/>
                </mxCell>
                <mxCell id="58" value="Titel" style="ellipse;whiteSpace=wrap;html=1;align=center;" parent="1" vertex="1">
                    <mxGeometry x="606.5" y="30" width="70" height="30" as="geometry"/>
                </mxCell>
                <mxCell id="59" value="Längd" style="ellipse;whiteSpace=wrap;html=1;align=center;" parent="1" vertex="1">
                    <mxGeometry x="536.5" y="10" width="80" height="30" as="geometry"/>
                </mxCell>
                <mxCell id="60" value="Antal" style="ellipse;whiteSpace=wrap;html=1;align=center;" parent="1" vertex="1">
                    <mxGeometry x="110" y="97.5" width="90" height="30" as="geometry"/>
                </mxCell>
                <mxCell id="70" value="" style="endArrow=none;html=1;rounded=0;exitX=0.75;exitY=0;exitDx=0;exitDy=0;entryX=0;entryY=0.5;entryDx=0;entryDy=0;" parent="1" source="5" target="58" edge="1">
                    <mxGeometry relative="1" as="geometry">
                        <mxPoint x="636.5" y="59" as="sourcePoint"/>
                        <mxPoint x="796.5" y="59" as="targetPoint"/>
                    </mxGeometry>
                </mxCell>
                <mxCell id="71" value="" style="endArrow=none;html=1;rounded=0;exitX=1;exitY=0.5;exitDx=0;exitDy=0;entryX=0;entryY=0;entryDx=0;entryDy=0;" parent="1" source="5" target="57" edge="1">
                    <mxGeometry relative="1" as="geometry">
                        <mxPoint x="666.5" y="60" as="sourcePoint"/>
                        <mxPoint x="826.5" y="60" as="targetPoint"/>
                    </mxGeometry>
                </mxCell>
                <mxCell id="72" value="" style="endArrow=none;html=1;rounded=0;exitX=0.5;exitY=1;exitDx=0;exitDy=0;entryX=0.5;entryY=0;entryDx=0;entryDy=0;" parent="1" source="5" target="56" edge="1">
                    <mxGeometry relative="1" as="geometry">
                        <mxPoint x="566.5" y="169" as="sourcePoint"/>
                        <mxPoint x="726.5" y="169" as="targetPoint"/>
                    </mxGeometry>
                </mxCell>
                <mxCell id="74" value="" style="endArrow=none;html=1;rounded=0;exitX=0;exitY=0.5;exitDx=0;exitDy=0;entryX=1;entryY=0.5;entryDx=0;entryDy=0;" parent="1" source="79" target="52" edge="1">
                    <mxGeometry relative="1" as="geometry">
                        <mxPoint x="700" y="155" as="sourcePoint"/>
                        <mxPoint x="860" y="155" as="targetPoint"/>
                    </mxGeometry>
                </mxCell>
                <mxCell id="76" value="" style="endArrow=none;html=1;rounded=0;exitX=1;exitY=0.5;exitDx=0;exitDy=0;entryX=0.5;entryY=0;entryDx=0;entryDy=0;" parent="1" source="80" target="54" edge="1">
                    <mxGeometry relative="1" as="geometry">
                        <mxPoint x="720" y="175" as="sourcePoint"/>
                        <mxPoint x="880" y="175" as="targetPoint"/>
                    </mxGeometry>
                </mxCell>
                <mxCell id="79" value="participate" style="shape=rhombus;perimeter=rhombusPerimeter;whiteSpace=wrap;html=1;align=center;" parent="1" vertex="1">
                    <mxGeometry x="660" y="215" width="83" height="40" as="geometry"/>
                </mxCell>
                <mxCell id="80" value="Participants" style="whiteSpace=wrap;html=1;align=center;" parent="1" vertex="1">
                    <mxGeometry x="676.5" y="357.62" width="100" height="40" as="geometry"/>
                </mxCell>
                <mxCell id="81" value="" style="endArrow=none;html=1;rounded=0;exitX=0.5;exitY=1;exitDx=0;exitDy=0;entryX=0.5;entryY=0;entryDx=0;entryDy=0;" parent="1" source="4" target="50" edge="1">
                    <mxGeometry relative="1" as="geometry">
                        <mxPoint x="-60" y="317.62" as="sourcePoint"/>
                        <mxPoint x="100" y="317.62" as="targetPoint"/>
                    </mxGeometry>
                </mxCell>
                <mxCell id="82" value="" style="endArrow=none;html=1;rounded=0;exitX=0.75;exitY=1;exitDx=0;exitDy=0;entryX=0.5;entryY=0;entryDx=0;entryDy=0;" parent="1" source="4" target="51" edge="1">
                    <mxGeometry relative="1" as="geometry">
                        <mxPoint x="-40" y="317.62" as="sourcePoint"/>
                        <mxPoint x="120" y="317.62" as="targetPoint"/>
                    </mxGeometry>
                </mxCell>
                <mxCell id="84" value="" style="endArrow=none;html=1;rounded=0;exitX=0;exitY=0;exitDx=0;exitDy=0;entryX=0.5;entryY=0;entryDx=0;entryDy=0;" parent="1" source="4" target="49" edge="1">
                    <mxGeometry relative="1" as="geometry">
                        <mxPoint x="-20" y="187.62" as="sourcePoint"/>
                        <mxPoint x="140" y="187.62" as="targetPoint"/>
                    </mxGeometry>
                </mxCell>
                <mxCell id="85" value="Chef" style="shape=rhombus;perimeter=rhombusPerimeter;whiteSpace=wrap;html=1;align=center;" parent="1" vertex="1">
                    <mxGeometry x="-150" y="367.62" width="100" height="40" as="geometry"/>
                </mxCell>
                <mxCell id="86" value="" style="endArrow=none;html=1;rounded=0;exitX=1;exitY=1;exitDx=0;exitDy=0;entryX=0;entryY=0.5;entryDx=0;entryDy=0;" parent="1" source="4" target="85" edge="1">
                    <mxGeometry relative="1" as="geometry">
                        <mxPoint x="-30" y="177.62" as="sourcePoint"/>
                        <mxPoint x="130" y="177.62" as="targetPoint"/>
                    </mxGeometry>
                </mxCell>
                <mxCell id="87" value="1" style="resizable=0;html=1;align=right;verticalAlign=bottom;" parent="86" connectable="0" vertex="1">
                    <mxGeometry x="1" relative="1" as="geometry">
                        <mxPoint y="-20" as="offset"/>
                    </mxGeometry>
                </mxCell>
                <mxCell id="93" value="Har" style="shape=rhombus;perimeter=rhombusPerimeter;whiteSpace=wrap;html=1;align=center;" parent="1" vertex="1">
                    <mxGeometry x="-237.5" y="177.62" width="89" height="40" as="geometry"/>
                </mxCell>
                <mxCell id="96" value="" style="shape=link;html=1;rounded=0;exitX=0.5;exitY=1;exitDx=0;exitDy=0;entryX=0.25;entryY=0;entryDx=0;entryDy=0;" parent="1" source="93" target="4" edge="1">
                    <mxGeometry relative="1" as="geometry">
                        <mxPoint x="-110" y="187.62" as="sourcePoint"/>
                        <mxPoint x="50" y="187.62" as="targetPoint"/>
                    </mxGeometry>
                </mxCell>
                <mxCell id="97" value="N" style="resizable=0;html=1;align=right;verticalAlign=bottom;" parent="96" connectable="0" vertex="1">
                    <mxGeometry x="1" relative="1" as="geometry">
                        <mxPoint x="-10" y="-21" as="offset"/>
                    </mxGeometry>
                </mxCell>
                <mxCell id="98" value="Status" style="ellipse;whiteSpace=wrap;html=1;align=center;" parent="1" vertex="1">
                    <mxGeometry x="200" y="120" width="80" height="35" as="geometry"/>
                </mxCell>
                <mxCell id="100" value="" style="endArrow=none;html=1;rounded=0;exitX=0.5;exitY=1;exitDx=0;exitDy=0;entryX=0.5;entryY=0;entryDx=0;entryDy=0;" parent="1" source="152" target="98" edge="1">
                    <mxGeometry relative="1" as="geometry">
                        <mxPoint x="287.5" y="97.5" as="sourcePoint"/>
                        <mxPoint x="50" y="187.62" as="targetPoint"/>
                    </mxGeometry>
                </mxCell>
                <mxCell id="106" value="&lt;u&gt;MedNr&lt;/u&gt;" style="ellipse;whiteSpace=wrap;html=1;align=center;" parent="1" vertex="1">
                    <mxGeometry x="90" y="287.62" width="100" height="40" as="geometry"/>
                </mxCell>
                <mxCell id="107" value="Start_datum" style="ellipse;whiteSpace=wrap;html=1;align=center;" parent="1" vertex="1">
                    <mxGeometry x="51.5" y="337.62" width="88.5" height="30" as="geometry"/>
                </mxCell>
                <mxCell id="108" value="Adress" style="ellipse;whiteSpace=wrap;html=1;align=center;" parent="1" vertex="1">
                    <mxGeometry x="-30" y="307.62" width="85" height="30" as="geometry"/>
                </mxCell>
                <mxCell id="109" value="Namn" style="ellipse;whiteSpace=wrap;html=1;align=center;" parent="1" vertex="1">
                    <mxGeometry x="-95" y="257.62" width="90" height="30" as="geometry"/>
                </mxCell>
                <mxCell id="110" value="" style="endArrow=none;html=1;rounded=0;entryX=0.75;entryY=1;entryDx=0;entryDy=0;exitX=0.5;exitY=0;exitDx=0;exitDy=0;" parent="1" source="107" target="3" edge="1">
                    <mxGeometry relative="1" as="geometry">
                        <mxPoint x="140" y="187.62" as="sourcePoint"/>
                        <mxPoint x="300" y="187.62" as="targetPoint"/>
                    </mxGeometry>
                </mxCell>
                <mxCell id="111" value="" style="endArrow=none;html=1;rounded=0;exitX=0.25;exitY=1;exitDx=0;exitDy=0;entryX=0.5;entryY=0;entryDx=0;entryDy=0;" parent="1" source="3" target="108" edge="1">
                    <mxGeometry relative="1" as="geometry">
                        <mxPoint x="177.5" y="267" as="sourcePoint"/>
                        <mxPoint x="337.5" y="267" as="targetPoint"/>
                    </mxGeometry>
                </mxCell>
                <mxCell id="112" value="" style="endArrow=none;html=1;rounded=0;exitX=0;exitY=0.5;exitDx=0;exitDy=0;entryX=0.5;entryY=0;entryDx=0;entryDy=0;" parent="1" source="3" target="109" edge="1">
                    <mxGeometry relative="1" as="geometry">
                        <mxPoint x="160" y="207.62" as="sourcePoint"/>
                        <mxPoint x="320" y="207.62" as="targetPoint"/>
                    </mxGeometry>
                </mxCell>
                <mxCell id="113" value="" style="endArrow=none;html=1;rounded=0;exitX=1;exitY=1;exitDx=0;exitDy=0;entryX=0.5;entryY=0;entryDx=0;entryDy=0;" parent="1" source="3" target="106" edge="1">
                    <mxGeometry relative="1" as="geometry">
                        <mxPoint x="140" y="187.62" as="sourcePoint"/>
                        <mxPoint x="300" y="187.62" as="targetPoint"/>
                    </mxGeometry>
                </mxCell>
                <mxCell id="117" value="" style="shape=link;html=1;rounded=0;exitX=0.25;exitY=1;exitDx=0;exitDy=0;entryX=0.5;entryY=0;entryDx=0;entryDy=0;" parent="1" source="2" target="93" edge="1">
                    <mxGeometry relative="1" as="geometry">
                        <mxPoint x="30" y="100" as="sourcePoint"/>
                        <mxPoint x="190" y="100" as="targetPoint"/>
                    </mxGeometry>
                </mxCell>
                <mxCell id="118" value="1" style="resizable=0;html=1;align=right;verticalAlign=bottom;" parent="117" connectable="0" vertex="1">
                    <mxGeometry x="1" relative="1" as="geometry">
                        <mxPoint x="-6" y="-19" as="offset"/>
                    </mxGeometry>
                </mxCell>
                <mxCell id="119" value="har" style="shape=rhombus;perimeter=rhombusPerimeter;whiteSpace=wrap;html=1;align=center;" parent="1" vertex="1">
                    <mxGeometry x="-148.5" y="157.62" width="100" height="40" as="geometry"/>
                </mxCell>
                <mxCell id="120" value="" style="endArrow=none;html=1;rounded=0;exitX=0.5;exitY=1;exitDx=0;exitDy=0;entryX=0.5;entryY=0;entryDx=0;entryDy=0;" parent="1" source="2" target="119" edge="1">
                    <mxGeometry relative="1" as="geometry">
                        <mxPoint x="110" y="140" as="sourcePoint"/>
                        <mxPoint x="270" y="140" as="targetPoint"/>
                    </mxGeometry>
                </mxCell>
                <mxCell id="121" value="1" style="resizable=0;html=1;align=right;verticalAlign=bottom;" parent="120" connectable="0" vertex="1">
                    <mxGeometry x="1" relative="1" as="geometry">
                        <mxPoint y="-10" as="offset"/>
                    </mxGeometry>
                </mxCell>
                <mxCell id="122" value="" style="endArrow=none;html=1;rounded=0;exitX=0.5;exitY=0;exitDx=0;exitDy=0;entryX=0.5;entryY=1;entryDx=0;entryDy=0;" parent="1" source="3" target="119" edge="1">
                    <mxGeometry relative="1" as="geometry">
                        <mxPoint x="-65" y="187.33" as="sourcePoint"/>
                        <mxPoint x="-90" y="207.33" as="targetPoint"/>
                    </mxGeometry>
                </mxCell>
                <mxCell id="123" value="N" style="resizable=0;html=1;align=right;verticalAlign=bottom;" parent="122" connectable="0" vertex="1">
                    <mxGeometry x="1" relative="1" as="geometry">
                        <mxPoint y="30" as="offset"/>
                    </mxGeometry>
                </mxCell>
                <mxCell id="124" value="" style="endArrow=none;html=1;rounded=0;exitX=1;exitY=0.5;exitDx=0;exitDy=0;entryX=0.5;entryY=0;entryDx=0;entryDy=0;" parent="1" source="4" target="85" edge="1">
                    <mxGeometry relative="1" as="geometry">
                        <mxPoint x="-20" y="137.62" as="sourcePoint"/>
                        <mxPoint x="140" y="137.62" as="targetPoint"/>
                    </mxGeometry>
                </mxCell>
                <mxCell id="125" value="N" style="resizable=0;html=1;align=right;verticalAlign=bottom;" parent="124" connectable="0" vertex="1">
                    <mxGeometry x="1" relative="1" as="geometry">
                        <mxPoint x="10" y="-10" as="offset"/>
                    </mxGeometry>
                </mxCell>
                <mxCell id="127" value="" style="endArrow=none;html=1;rounded=0;exitX=1;exitY=0.5;exitDx=0;exitDy=0;" parent="1" source="2" edge="1">
                    <mxGeometry relative="1" as="geometry">
                        <mxPoint x="81.5" y="76.94" as="sourcePoint"/>
                        <mxPoint x="230" y="74" as="targetPoint"/>
                    </mxGeometry>
                </mxCell>
                <mxCell id="128" value="N" style="resizable=0;html=1;align=right;verticalAlign=bottom;" parent="127" connectable="0" vertex="1">
                    <mxGeometry x="1" relative="1" as="geometry">
                        <mxPoint x="-45" y="-6" as="offset"/>
                    </mxGeometry>
                </mxCell>
                <mxCell id="129" value="" style="endArrow=none;html=1;rounded=0;exitX=1;exitY=0.5;exitDx=0;exitDy=0;entryX=0;entryY=0.5;entryDx=0;entryDy=0;" parent="1" source="152" target="5" edge="1">
                    <mxGeometry relative="1" as="geometry">
                        <mxPoint x="340" y="73.75" as="sourcePoint"/>
                        <mxPoint x="450" y="220" as="targetPoint"/>
                    </mxGeometry>
                </mxCell>
                <mxCell id="130" value="M" style="resizable=0;html=1;align=right;verticalAlign=bottom;" parent="129" connectable="0" vertex="1">
                    <mxGeometry x="1" relative="1" as="geometry">
                        <mxPoint x="-120" as="offset"/>
                    </mxGeometry>
                </mxCell>
                <mxCell id="134" value="Reserv_datum" style="ellipse;whiteSpace=wrap;html=1;align=center;" parent="1" vertex="1">
                    <mxGeometry x="230" y="225" width="100" height="40" as="geometry"/>
                </mxCell>
                <mxCell id="135" value="Återlämning" style="ellipse;whiteSpace=wrap;html=1;align=center;" parent="1" vertex="1">
                    <mxGeometry x="300" y="350" width="100" height="40" as="geometry"/>
                </mxCell>
                <mxCell id="136" value="Hyrdeut" style="ellipse;whiteSpace=wrap;html=1;align=center;" parent="1" vertex="1">
                    <mxGeometry x="436.5" y="345" width="100" height="40" as="geometry"/>
                </mxCell>
                <mxCell id="137" value="" style="endArrow=none;html=1;rounded=0;entryX=0;entryY=1;entryDx=0;entryDy=0;exitX=0.5;exitY=0;exitDx=0;exitDy=0;" parent="1" source="134" target="153" edge="1">
                    <mxGeometry relative="1" as="geometry">
                        <mxPoint x="290" y="265" as="sourcePoint"/>
                        <mxPoint x="265" y="410" as="targetPoint"/>
                    </mxGeometry>
                </mxCell>
                <mxCell id="138" value="" style="endArrow=none;html=1;rounded=0;entryX=0;entryY=1;entryDx=0;entryDy=0;exitX=0.5;exitY=0;exitDx=0;exitDy=0;" parent="1" source="135" target="154" edge="1">
                    <mxGeometry relative="1" as="geometry">
                        <mxPoint x="300" y="275" as="sourcePoint"/>
                        <mxPoint x="395" y="405" as="targetPoint"/>
                    </mxGeometry>
                </mxCell>
                <mxCell id="139" value="" style="endArrow=none;html=1;rounded=0;exitX=1;exitY=1;exitDx=0;exitDy=0;entryX=0.5;entryY=0;entryDx=0;entryDy=0;" parent="1" source="154" target="136" edge="1">
                    <mxGeometry relative="1" as="geometry">
                        <mxPoint x="445" y="405" as="sourcePoint"/>
                        <mxPoint x="470" y="285" as="targetPoint"/>
                    </mxGeometry>
                </mxCell>
                <mxCell id="147" value="" style="endArrow=none;html=1;rounded=0;exitX=0.25;exitY=1;exitDx=0;exitDy=0;entryX=1;entryY=0.5;entryDx=0;entryDy=0;" parent="1" source="5" target="153" edge="1">
                    <mxGeometry relative="1" as="geometry">
                        <mxPoint x="300" y="190" as="sourcePoint"/>
                        <mxPoint x="385" y="255" as="targetPoint"/>
                    </mxGeometry>
                </mxCell>
                <mxCell id="148" value="M" style="resizable=0;html=1;align=right;verticalAlign=bottom;" parent="147" connectable="0" vertex="1">
                    <mxGeometry x="1" relative="1" as="geometry">
                        <mxPoint x="15" y="-12" as="offset"/>
                    </mxGeometry>
                </mxCell>
                <mxCell id="149" value="" style="endArrow=none;html=1;rounded=0;exitX=1;exitY=0.5;exitDx=0;exitDy=0;entryX=0;entryY=0.5;entryDx=0;entryDy=0;" parent="1" source="3" target="153" edge="1">
                    <mxGeometry relative="1" as="geometry">
                        <mxPoint x="310" y="200" as="sourcePoint"/>
                        <mxPoint x="280" y="255" as="targetPoint"/>
                    </mxGeometry>
                </mxCell>
                <mxCell id="150" value="N" style="resizable=0;html=1;align=right;verticalAlign=bottom;" parent="149" connectable="0" vertex="1">
                    <mxGeometry x="1" relative="1" as="geometry">
                        <mxPoint x="-10" y="-12" as="offset"/>
                    </mxGeometry>
                </mxCell>
                <mxCell id="152" value="Erbjuder" style="shape=rhombus;perimeter=rhombusPerimeter;whiteSpace=wrap;html=1;align=center;" parent="1" vertex="1">
                    <mxGeometry x="230" y="47.5" width="120" height="60" as="geometry"/>
                </mxCell>
                <mxCell id="153" value="Reserv" style="shape=rhombus;perimeter=rhombusPerimeter;whiteSpace=wrap;html=1;align=center;" parent="1" vertex="1">
                    <mxGeometry x="265" y="157.62" width="120" height="60" as="geometry"/>
                </mxCell>
                <mxCell id="154" value="Uthyrning" style="shape=rhombus;perimeter=rhombusPerimeter;whiteSpace=wrap;html=1;align=center;" parent="1" vertex="1">
                    <mxGeometry x="330" y="265" width="120" height="60" as="geometry"/>
                </mxCell>
                <mxCell id="155" value="" style="endArrow=none;html=1;rounded=0;exitX=1;exitY=0.75;exitDx=0;exitDy=0;entryX=0;entryY=0.5;entryDx=0;entryDy=0;" parent="1" source="3" target="154" edge="1">
                    <mxGeometry relative="1" as="geometry">
                        <mxPoint x="160" y="200" as="sourcePoint"/>
                        <mxPoint x="320" y="200" as="targetPoint"/>
                    </mxGeometry>
                </mxCell>
                <mxCell id="156" value="N" style="resizable=0;html=1;align=right;verticalAlign=bottom;" parent="155" connectable="0" vertex="1">
                    <mxGeometry x="1" relative="1" as="geometry"/>
                </mxCell>
                <mxCell id="157" value="" style="endArrow=none;html=1;rounded=0;exitX=0.5;exitY=1;exitDx=0;exitDy=0;entryX=1;entryY=0.5;entryDx=0;entryDy=0;" parent="1" source="5" target="154" edge="1">
                    <mxGeometry relative="1" as="geometry">
                        <mxPoint x="160" y="200" as="sourcePoint"/>
                        <mxPoint x="320" y="200" as="targetPoint"/>
                    </mxGeometry>
                </mxCell>
                <mxCell id="158" value="M" style="resizable=0;html=1;align=right;verticalAlign=bottom;" parent="157" connectable="0" vertex="1">
                    <mxGeometry x="1" relative="1" as="geometry">
                        <mxPoint y="-12" as="offset"/>
                    </mxGeometry>
                </mxCell>
                <mxCell id="159" value="" style="endArrow=none;html=1;rounded=0;entryX=0.5;entryY=0;entryDx=0;entryDy=0;" parent="1" target="79" edge="1">
                    <mxGeometry relative="1" as="geometry">
                        <mxPoint x="550" y="110" as="sourcePoint"/>
                        <mxPoint x="320" y="200" as="targetPoint"/>
                    </mxGeometry>
                </mxCell>
                <mxCell id="160" value="N" style="resizable=0;html=1;align=right;verticalAlign=bottom;" parent="159" connectable="0" vertex="1">
                    <mxGeometry x="1" relative="1" as="geometry"/>
                </mxCell>
                <mxCell id="161" value="M" style="endArrow=none;html=1;rounded=0;entryX=0.5;entryY=1;entryDx=0;entryDy=0;exitX=0.5;exitY=0;exitDx=0;exitDy=0;" parent="1" source="80" target="79" edge="1">
                    <mxGeometry relative="1" as="geometry">
                        <mxPoint x="739" y="357.6199999999999" as="sourcePoint"/>
                        <mxPoint x="714" y="255" as="targetPoint"/>
                    </mxGeometry>
                </mxCell>
                <mxCell id="164" value="&lt;u&gt;personummer&lt;/u&gt;" style="ellipse;whiteSpace=wrap;html=1;align=center;" parent="1" vertex="1">
                    <mxGeometry x="600" y="470" width="100" height="40" as="geometry"/>
                </mxCell>
                <mxCell id="165" value="" style="endArrow=none;html=1;rounded=0;entryX=0.5;entryY=0;entryDx=0;entryDy=0;exitX=0.25;exitY=1;exitDx=0;exitDy=0;" parent="1" source="80" target="164" edge="1">
                    <mxGeometry relative="1" as="geometry">
                        <mxPoint x="160" y="200" as="sourcePoint"/>
                        <mxPoint x="320" y="200" as="targetPoint"/>
                    </mxGeometry>
                </mxCell>
            </root>
        </mxGraphModel>
    </diagram>
</mxfile>